Coordinates
version=1
nRows=11
nColumns=40
inDegrees=yes

Units are S.I. units (second, meters, Newtons, ...)
Angles are in degrees.

endheader
time	pelvis_tilt	pelvis_list	pelvis_rotation	pelvis_tx	pelvis_ty	pelvis_tz	hip_flexion_r	hip_adduction_r	hip_rotation_r	knee_angle_r	knee_angle_r_beta	ankle_angle_r	subtalar_angle_r	mtp_angle_r	hip_flexion_l	hip_adduction_l	hip_rotation_l	knee_angle_l	knee_angle_l_beta	ankle_angle_l	subtalar_angle_l	mtp_angle_l	lumbar_extension	lumbar_bending	lumbar_rotation	arm_flex_r	arm_add_r	arm_rot_r	elbow_flex_r	pro_sup_r	wrist_flex_r	wrist_dev_r	arm_flex_l	arm_add_l	arm_rot_l	elbow_flex_l	pro_sup_l	wrist_flex_l	wrist_dev_l
      5.75000000	     -4.54712978	     -5.29508790	     -0.85536130	      0.77656449	      0.93165850	      0.51745327	     12.48115300	      4.83070306	    -17.26911165	     12.86066485	     12.86066485	      7.69664026	      6.37321539	     -6.61921571	     28.74039598	    -12.59710810	     -3.76952743	     54.15046243	     54.15046243	     15.07118238	    -19.36871983	     20.33003948	    -10.84761560	      8.56229453	      2.67819220	     18.42135542	    -16.45257702	     -2.74420857	     43.97388798	     45.75807192	      0.00000000	      0.00000000	      2.43311386	     -9.30387686	     -5.87365313	     47.26788399	     45.72113182	      0.00000000	      0.00000000
      5.76342857	     -4.69436824	     -5.22890542	     -0.60568219	      0.77434225	      0.93167280	      0.51768419	     12.15368203	      4.86323842	    -17.04120145	     12.54774545	     12.54774545	      7.83507954	      5.79092461	     -6.68032731	     29.71414432	    -12.33569021	     -3.34633028	     51.66856935	     51.66856935	     15.21068255	    -19.33862040	     20.27625928	    -10.83386244	      8.45430400	      2.44139007	     19.94767511	    -16.47194344	     -2.79769822	     45.35018764	     45.71630634	      0.00000000	      0.00000000	      1.57277092	     -9.53891509	     -6.07678634	     46.42505071	     45.73956098	      0.00000000	      0.00000000
      5.77685714	     -4.83881826	     -5.19578438	     -0.35991648	      0.77216172	      0.93163321	      0.51785599	     11.81362330	      4.91959101	    -16.90376630	     12.21112458	     12.21112458	      7.85011047	      5.28887021	     -7.18061595	     30.47547417	    -12.08705433	     -2.97388455	     48.83180182	     48.83180182	     14.84154286	    -19.29236720	     19.33273513	    -10.83454777	      8.40062792	      2.67225752	     20.68019762	    -17.12394857	     -2.17325151	     48.22980110	     45.58020947	      0.00000000	      0.00000000	      1.37659792	     -9.36885068	     -7.02056783	     44.58411863	     45.87168407	      0.00000000	      0.00000000
      5.79028571	     -4.96900161	     -5.11977923	     -0.09941034	      0.77003327	      0.93156302	      0.51788392	     11.49978540	      4.87875701	    -16.92947518	     11.99061475	     11.99061475	      8.06182683	      5.13084099	     -7.27980141	     31.06914380	    -11.68950163	     -2.50739777	     45.80480673	     45.80480673	     14.70501467	    -19.23250786	     19.26353521	    -10.83236380	      8.30252904	      2.42264854	     22.11339117	    -17.12847963	     -2.16032660	     49.82941265	     45.52895928	      0.00000000	      0.00000000	      0.62613965	     -9.61632866	     -7.12514433	     43.55118099	     45.87936379	      0.00000000	      0.00000000
      5.80371429	     -5.09939048	     -5.05615877	      0.14166970	      0.76791792	      0.93147263	      0.51779373	     11.20564368	      4.83938403	    -16.96101159	     11.79124638	     11.79124638	      8.25892124	      4.97209235	     -7.41192489	     31.52167763	    -11.25317873	     -1.99926829	     42.62626169	     42.62626169	     14.32145848	    -19.11805905	     18.90544918	    -10.84243534	      8.23446677	      2.25255739	     23.31745221	    -17.24089403	     -2.04064311	     51.92123874	     45.45476303	      0.00000000	      0.00000000	      0.03197683	     -9.75989057	     -7.34767441	     42.29759810	     45.90123419	      0.00000000	      0.00000000
      5.81714286	     -5.29129423	     -4.93788851	      0.38877096	      0.76583548	      0.93128170	      0.51753359	     10.99705203	      4.72123455	    -16.98998413	     11.63067638	     11.63067638	      8.48310849	      4.82074493	     -7.50760976	     31.93736678	    -10.68691442	     -1.40936915	     39.38063696	     39.38063696	     13.91425021	    -18.96730379	     18.86760136	    -10.74280676	      8.07458495	      2.27576188	     24.41842330	    -17.39575438	     -2.04111530	     53.45401598	     45.40623224	      0.00000000	      0.00000000	     -0.52303441	     -9.88275081	     -7.48794489	     41.51282133	     45.91101889	      0.00000000	      0.00000000
      5.83057143	     -5.44973009	     -4.96792153	      0.64922912	      0.76386261	      0.93095320	      0.51716725	     10.75709704	      4.73578831	    -17.18785647	     11.48715420	     11.48715420	      8.67335171	      4.84238946	     -7.77778477	     32.22439282	    -10.28998022	     -0.83179188	     36.04920218	     36.04920218	     12.65544165	    -18.72046760	     16.49519326	    -10.77743159	      8.15133039	      2.59105039	     24.28200293	    -18.18352121	     -1.71789394	     58.40146299	     45.22448324	      0.00000000	      0.00000000	     -0.38123558	     -9.66798367	     -8.35027587	     39.41462541	     46.02412871	      0.00000000	      0.00000000
      5.84400000	     -5.61524175	     -4.87470670	      0.86779204	      0.76190507	      0.93071307	      0.51664672	     10.54712314	      4.62057545	    -17.22167268	     11.38577000	     11.38577000	      8.90963954	      4.69410969	     -7.84276955	     32.50487640	     -9.72581427	     -0.18603513	     32.93347858	     32.93347858	     12.32483933	    -18.17228493	     16.65576678	    -10.69714944	      8.02230898	      2.47503870	     25.51984494	    -18.07783979	     -1.90213434	     59.76835808	     45.19193155	      0.00000000	      0.00000000	     -1.00131381	     -9.76673417	     -8.38599152	     38.86469151	     46.02078944	      0.00000000	      0.00000000
      5.85742857	     -5.73020343	     -4.90301959	      1.14828591	      0.76010622	      0.93035412	      0.51599410	     10.27804275	      4.60667332	    -17.40193534	     11.31234433	     11.31234433	      9.22642743	      4.74198823	     -7.94047143	     32.75240186	     -9.28332293	      0.52700777	     29.99038794	     29.99038794	     11.59705853	    -17.48305738	     15.71798118	    -10.72400272	      8.09117025	      2.00282944	     26.38133400	    -17.68433979	     -2.11222258	     63.06217902	     45.09595199	      0.00000000	      0.00000000	     -1.65898639	     -9.88872290	     -8.62277390	     37.93616787	     46.04384419	      0.00000000	      0.00000000
      5.87085714	     -5.84920259	     -4.94271967	      1.35420403	      0.75843256	      0.93000809	      0.51535944	     10.00812453	      4.61101184	    -17.60175901	     11.23669749	     11.23669749	      9.52268556	      4.82929296	     -7.91068673	     32.86451083	     -9.00744678	      0.80141392	     26.99131507	     26.99131507	     10.07190026	    -16.39692755	     12.74879326	    -10.78465500	      8.13051319	      2.77835626	     25.78726045	    -18.23297248	     -3.06585961	     68.16287935	     44.98951701	      0.00000000	      0.00000000	     -1.45617486	     -9.74403868	     -9.11507766	     36.72810926	     46.12284435	      0.00000000	      0.00000000
      5.88428571	     -6.02644015	     -4.97615015	      1.58306263	      0.75682620	      0.92956838	      0.51456183	      9.79270976	      4.60705919	    -17.71475154	     11.14732233	     11.14732233	      9.78787776	      4.75037390	     -7.97619432	     33.20043373	     -8.72387071	      1.05600521	     24.60308474	     24.60308474	      9.90272813	    -14.73961996	     12.91444718	    -10.61127809	      8.15647981	      2.54369717	     26.94796714	    -17.83784535	     -3.16900040	     69.58542520	     44.95318847	      0.00000000	      0.00000000	     -2.08927584	     -9.81009537	     -9.08832693	     36.34207814	     46.11083326	      0.00000000	      0.00000000
